<svg width="24" height="24" viewBox="0 0 24 24" fill="none" xmlns="http://www.w3.org/2000/svg">
<path d="M15.7059 4.33301H16.78C18.2911 4.41674 19.9029 4.6979 21.1072 5.67925C22.0665 6.45512 22.473 7.77101 22.2351 8.96477C22.0588 9.84703 21.6442 10.6686 21.1994 11.4522C20.3016 12.9962 19.1892 14.4108 18.138 15.8634C17.9462 16.0993 17.8006 16.3958 17.8157 16.7077C17.8389 16.9512 18.0307 17.1486 18.2531 17.24C18.6828 17.4148 19.166 17.3768 19.6189 17.3541C21.0611 17.202 22.4501 16.7684 23.8233 16.3347C23.9233 16.274 23.9616 16.3808 24 16.4565C22.542 17.4148 20.9692 18.221 19.3194 18.8144C18.4065 19.1186 17.4398 19.4075 16.4653 19.2938C15.9589 19.24 15.4448 18.9439 15.2836 18.4342C15.0844 17.7801 15.1611 17.0499 15.4448 16.4261C15.8826 15.4529 16.5653 14.6236 17.2019 13.7797C18.2682 12.3951 19.3655 11.0181 20.2021 9.47446C20.4857 8.93443 20.7775 8.26534 20.5012 7.66424C20.2478 7.10922 19.6801 6.78198 19.1431 6.53117C18.1915 6.11251 17.1709 5.85401 16.1662 5.57286C16.0128 5.67426 15.8617 5.77297 15.7137 5.86938C16.0585 6.13555 16.4115 6.40173 16.7571 6.66829C15.4374 6.90374 14.1177 7.16991 12.8131 7.49716C10.8335 7.99148 8.90008 8.64559 6.98174 9.33004C7.16617 9.70261 7.35797 10.0752 7.53427 10.4478C7.09721 10.9271 6.66751 11.4064 6.23781 11.8781C7.28373 12.1917 8.39344 12.2335 9.46036 11.9995C10.3659 11.7944 11.2249 11.3684 11.9157 10.7523C11.7235 10.5165 11.4856 10.3264 11.2326 10.1743C12.0765 10.1973 12.8437 10.9194 12.8437 11.7713H12.3528C12.3166 11.5875 12.2653 11.4068 12.1994 11.2313C11.2404 12.0909 10.0051 12.6309 8.72379 12.7677C7.59587 12.8971 6.4451 12.745 5.37841 12.3494C5.45513 12.9985 5.52681 13.6476 5.59345 14.2967C4.98925 14.5336 4.42717 14.8648 3.92851 15.2777C3.52942 15.6199 3.13033 16.0152 2.98465 16.5325C2.83121 16.9888 3.07686 17.5062 3.47556 17.7497C3.95912 18.0462 4.52676 18.1907 5.09478 18.2667C5.83097 18.3658 6.58304 18.3581 7.32736 18.3051C8.785 18.1983 10.2353 17.9249 11.6546 17.5823C11.7929 17.5289 11.8619 17.757 11.7162 17.795C10.5805 18.3731 9.39914 18.8601 8.15615 19.172C6.99763 19.4762 5.80036 19.6283 4.59573 19.6663C3.37599 19.6279 2.07178 19.3925 1.10466 18.6013C0.383978 18.0236 0 17.1033 0 16.1903V16.1446C0.0232479 15.179 0.352594 14.2433 0.828789 13.4145C1.45028 12.2353 2.21746 11.1326 3.12258 10.1512C4.68794 8.43242 6.65239 7.10923 8.76214 6.15092C10.9564 5.16956 13.297 4.46245 15.7059 4.33301Z" fill="#FF5A00"/>
</svg>
