<svg width="24" height="24" viewBox="0 0 24 24" fill="none" xmlns="http://www.w3.org/2000/svg">
<g clip-path="url(#clip0_113_224)">
<path d="M12.0183 24C18.6558 24 24.0365 18.6274 24.0365 12C24.0365 5.37258 18.6558 0 12.0183 0C5.38077 0 0 5.37258 0 12C0 18.6274 5.38077 24 12.0183 24Z" fill="#E0E0E0"/>
<path d="M12.0192 23.6353C18.5558 23.6353 23.8548 18.3443 23.8548 11.8176C23.8548 5.29093 18.5558 0 12.0192 0C5.48259 0 0.183594 5.29093 0.183594 11.8176C0.183594 18.3443 5.48259 23.6353 12.0192 23.6353Z" fill="white"/>
<mask id="mask0_113_224" style="mask-type:luminance" maskUnits="userSpaceOnUse" x="4" y="3" width="16" height="17">
<path d="M19.6892 10.4316H12.2006V13.5319H16.5111C16.1093 15.5015 14.4289 16.6322 12.2006 16.6322C9.57046 16.6322 7.45173 14.5167 7.45173 11.8905C7.45173 9.26439 9.57046 7.14889 12.2006 7.14889C13.333 7.14889 14.3558 7.55011 15.1595 8.20665L17.4974 5.87229C16.0727 4.63217 14.2463 3.86621 12.2006 3.86621C7.74397 3.86621 4.16406 7.44068 4.16406 11.8905C4.16406 16.3404 7.74397 19.9148 12.2006 19.9148C16.2189 19.9148 19.8718 16.9969 19.8718 11.8905C19.8718 11.4164 19.7988 10.9057 19.6892 10.4316Z" fill="white"/>
</mask>
<g mask="url(#mask0_113_224)">
<path d="M3.43359 16.6322V7.14893L9.64364 11.8906L3.43359 16.6322Z" fill="#FBBC05"/>
</g>
<mask id="mask1_113_224" style="mask-type:luminance" maskUnits="userSpaceOnUse" x="4" y="3" width="16" height="17">
<path d="M19.6892 10.4316H12.2006V13.5319H16.5111C16.1093 15.5015 14.4289 16.6322 12.2006 16.6322C9.57046 16.6322 7.45173 14.5167 7.45173 11.8905C7.45173 9.26439 9.57046 7.14889 12.2006 7.14889C13.333 7.14889 14.3558 7.55011 15.1595 8.20665L17.4974 5.87229C16.0727 4.63217 14.2463 3.86621 12.2006 3.86621C7.74397 3.86621 4.16406 7.44068 4.16406 11.8905C4.16406 16.3404 7.74397 19.9148 12.2006 19.9148C16.2189 19.9148 19.8718 16.9969 19.8718 11.8905C19.8718 11.4164 19.7988 10.9057 19.6892 10.4316Z" fill="white"/>
</mask>
<g mask="url(#mask1_113_224)">
<path d="M3.43359 7.14888L9.64364 11.8905L12.2007 9.6656L20.9678 8.2431V3.13672H3.43359V7.14888Z" fill="#EA4335"/>
</g>
<mask id="mask2_113_224" style="mask-type:luminance" maskUnits="userSpaceOnUse" x="4" y="3" width="16" height="17">
<path d="M19.6892 10.4316H12.2006V13.5319H16.5111C16.1093 15.5015 14.4289 16.6322 12.2006 16.6322C9.57046 16.6322 7.45173 14.5167 7.45173 11.8905C7.45173 9.26439 9.57046 7.14889 12.2006 7.14889C13.333 7.14889 14.3558 7.55011 15.1595 8.20665L17.4974 5.87229C16.0727 4.63217 14.2463 3.86621 12.2006 3.86621C7.74397 3.86621 4.16406 7.44068 4.16406 11.8905C4.16406 16.3404 7.74397 19.9148 12.2006 19.9148C16.2189 19.9148 19.8718 16.9969 19.8718 11.8905C19.8718 11.4164 19.7988 10.9057 19.6892 10.4316Z" fill="white"/>
</mask>
<g mask="url(#mask2_113_224)">
<path d="M3.43359 16.6322L14.3925 8.2431L17.2783 8.60784L20.9678 3.13672V20.6443H3.43359V16.6322Z" fill="#34A853"/>
</g>
<mask id="mask3_113_224" style="mask-type:luminance" maskUnits="userSpaceOnUse" x="4" y="3" width="16" height="17">
<path d="M19.6892 10.4316H12.2006V13.5319H16.5111C16.1093 15.5015 14.4289 16.6322 12.2006 16.6322C9.57046 16.6322 7.45173 14.5167 7.45173 11.8905C7.45173 9.26439 9.57046 7.14889 12.2006 7.14889C13.333 7.14889 14.3558 7.55011 15.1595 8.20665L17.4974 5.87229C16.0727 4.63217 14.2463 3.86621 12.2006 3.86621C7.74397 3.86621 4.16406 7.44068 4.16406 11.8905C4.16406 16.3404 7.74397 19.9148 12.2006 19.9148C16.2189 19.9148 19.8718 16.9969 19.8718 11.8905C19.8718 11.4164 19.7988 10.9057 19.6892 10.4316Z" fill="white"/>
</mask>
<g mask="url(#mask3_113_224)">
<path d="M20.969 20.6444L9.64478 11.8906L8.18359 10.7963L20.969 7.14893V20.6444Z" fill="#4285F4"/>
</g>
</g>
<defs>
<clipPath id="clip0_113_224">
<rect width="24" height="24" fill="white"/>
</clipPath>
</defs>
</svg>
