<svg width="57" height="56" viewBox="0 0 57 56" fill="none" xmlns="http://www.w3.org/2000/svg">
<path d="M29.2793 44.536C29.2793 38.4215 31.5722 32.3657 36.1581 26.3688C40.744 20.2542 47.0938 15.198 55.2073 11.2L56.0892 13.6693C50.5626 16.9618 46.153 20.6658 42.8606 24.7814C39.5682 28.7793 37.7456 32.7773 37.3928 36.7753C38.8038 35.4818 40.2737 34.4235 41.8023 33.6004C43.4485 32.7773 45.036 32.3657 46.5646 32.3657C48.2108 32.3657 49.4455 32.9537 50.2686 34.1296C51.0917 35.1878 51.5033 36.6577 51.5033 38.5391C51.5033 41.0084 50.7977 43.5365 49.3867 46.1235C47.9757 48.5928 46.153 50.7094 43.9189 52.4732C41.8023 54.1194 39.5094 54.9425 37.04 54.9425C34.3355 54.9425 32.3365 54.0018 31.0431 52.1204C29.8672 50.239 29.2793 47.7109 29.2793 44.536ZM0 44.536C0 38.4215 2.29295 32.3657 6.87886 26.3688C11.4648 20.2542 17.8145 15.198 25.928 11.2L26.8099 13.6693C21.2833 16.9618 16.8738 20.6658 13.5813 24.7814C10.2889 28.7793 8.46629 32.7773 8.11353 36.7753C9.52458 35.4818 10.9944 34.4235 12.5231 33.6004C14.1693 32.7773 15.7567 32.3657 17.2853 32.3657C18.9316 32.3657 20.1662 32.9537 20.9893 34.1296C21.8125 35.1878 22.224 36.6577 22.224 38.5391C22.224 41.0084 21.5185 43.5365 20.1074 46.1235C18.6964 48.5928 16.8738 50.7094 14.6396 52.4732C12.5231 54.1194 10.2301 54.9425 7.76077 54.9425C5.05626 54.9425 3.05727 54.0018 1.76381 52.1204C0.587937 50.239 0 47.7109 0 44.536Z" fill="#48555B"/>
</svg>
